<svg width="20" height="21" viewBox="0 0 20 21" fill="none" xmlns="http://www.w3.org/2000/svg">
<path d="M1.6665 7.16667C1.6665 7.16667 5.39746 3 9.99984 3C14.6022 3 18.3332 7.16667 18.3332 7.16667" stroke="#535862" stroke-width="1.25" stroke-linecap="round"/>
<path d="M17.9532 11.3709C18.2065 11.7261 18.3332 11.9038 18.3332 12.1667C18.3332 12.4296 18.2065 12.6073 17.9532 12.9625C16.8148 14.5589 13.9075 18 9.99984 18C6.09215 18 3.18492 14.5589 2.04654 12.9625C1.79318 12.6073 1.6665 12.4296 1.6665 12.1667C1.6665 11.9038 1.79318 11.7261 2.04654 11.3709C3.18492 9.77454 6.09215 6.33337 9.99984 6.33337C13.9075 6.33337 16.8148 9.77454 17.9532 11.3709Z" stroke="#535862" stroke-width="1.25"/>
<path d="M12.5 12.1666C12.5 10.7859 11.3807 9.66663 10 9.66663C8.61925 9.66663 7.5 10.7859 7.5 12.1666C7.5 13.5474 8.61925 14.6666 10 14.6666C11.3807 14.6666 12.5 13.5474 12.5 12.1666Z" stroke="#535862" stroke-width="1.25"/>
</svg>
