<svg width="24" height="25" viewBox="0 0 24 25" fill="none" xmlns="http://www.w3.org/2000/svg">
<path d="M3 7.965H6" stroke="#3A3A3A" stroke-width="1.5" stroke-linecap="round" stroke-linejoin="round"/>
<path d="M3 17.965H9" stroke="#3A3A3A" stroke-width="1.5" stroke-linecap="round" stroke-linejoin="round"/>
<path d="M18 17.965H21" stroke="#3A3A3A" stroke-width="1.5" stroke-linecap="round" stroke-linejoin="round"/>
<path d="M15 7.965H21" stroke="#3A3A3A" stroke-width="1.5" stroke-linecap="round" stroke-linejoin="round"/>
<path d="M6 7.965C6 7.03312 6 6.56718 6.15224 6.19963C6.35523 5.70958 6.74458 5.32023 7.23463 5.11724C7.60218 4.965 8.06812 4.965 9 4.965C9.93188 4.965 10.3978 4.965 10.7654 5.11724C11.2554 5.32023 11.6448 5.70958 11.8478 6.19963C12 6.56718 12 7.03312 12 7.965C12 8.89688 12 9.36282 11.8478 9.73037C11.6448 10.2204 11.2554 10.6098 10.7654 10.8128C10.3978 10.965 9.93188 10.965 9 10.965C8.06812 10.965 7.60218 10.965 7.23463 10.8128C6.74458 10.6098 6.35523 10.2204 6.15224 9.73037C6 9.36282 6 8.89688 6 7.965Z" stroke="#3A3A3A" stroke-width="1.5"/>
<path d="M12 17.965C12 17.0331 12 16.5672 12.1522 16.1996C12.3552 15.7096 12.7446 15.3202 13.2346 15.1172C13.6022 14.965 14.0681 14.965 15 14.965C15.9319 14.965 16.3978 14.965 16.7654 15.1172C17.2554 15.3202 17.6448 15.7096 17.8478 16.1996C18 16.5672 18 17.0331 18 17.965C18 18.8969 18 19.3628 17.8478 19.7304C17.6448 20.2204 17.2554 20.6098 16.7654 20.8128C16.3978 20.965 15.9319 20.965 15 20.965C14.0681 20.965 13.6022 20.965 13.2346 20.8128C12.7446 20.6098 12.3552 20.2204 12.1522 19.7304C12 19.3628 12 18.8969 12 17.965Z" stroke="#3A3A3A" stroke-width="1.5"/>
</svg>
