<svg width="25" height="24" viewBox="0 0 25 24" fill="none" xmlns="http://www.w3.org/2000/svg">
<path d="M14.499 14.1086C14.4042 14.1086 14.3082 14.1043 14.211 14.0957C14.1331 14.0887 14.06 14.0547 14.0045 13.9996C13.9489 13.9444 13.9143 13.8717 13.9067 13.7938C13.8314 13.0258 14.069 12.3202 14.5756 11.8092C15.1106 11.2697 15.8716 11.0141 16.7159 11.0892C16.7939 11.0962 16.867 11.1301 16.9226 11.1853C16.9782 11.2404 17.0128 11.3132 17.0205 11.3911C17.0956 12.1591 16.858 12.8647 16.3516 13.3754C15.8781 13.8535 15.2279 14.1086 14.499 14.1086ZM16.3602 11.7497C15.8399 11.7648 15.3832 11.9494 15.0527 12.2825C14.7534 12.5844 14.5857 12.9864 14.567 13.4345C15.0873 13.4194 15.544 13.235 15.8745 12.9019C16.1733 12.6 16.3413 12.199 16.3602 11.7497ZM13.7973 17.016C13.0456 17.016 12.3414 16.6814 11.8144 16.074C11.7614 16.0129 11.7322 15.9347 11.7322 15.8538C11.7322 15.7729 11.7614 15.6947 11.8144 15.6336C12.3424 15.0262 13.0456 14.6916 13.7973 14.6916C14.549 14.6916 15.2529 15.0262 15.7799 15.6336C15.8329 15.6947 15.8621 15.7729 15.8621 15.8538C15.8621 15.9347 15.8329 16.0129 15.7799 16.074C15.2517 16.6824 14.5475 17.016 13.7973 17.016ZM12.5406 15.8539C12.9016 16.1729 13.3386 16.344 13.7973 16.344C14.2559 16.344 14.6918 16.1719 15.0539 15.8539C14.6906 15.5369 14.2533 15.3646 13.7973 15.3646C13.3413 15.3646 12.9016 15.5369 12.5394 15.8549L12.5406 15.8539Z" fill="#AA3C31"/>
<path d="M12.0503 16.1746C11.9746 16.1748 11.901 16.1494 11.8415 16.1026C11.2019 15.5957 10.8499 14.9153 10.8499 14.1869C10.8499 13.4585 11.2019 12.7778 11.8415 12.2712C11.9009 12.2242 11.9745 12.1985 12.0502 12.1985C12.126 12.1985 12.1995 12.2242 12.2589 12.2712C12.8985 12.7778 13.2506 13.4582 13.2506 14.1869C13.2506 14.9155 12.8985 15.5957 12.2589 16.1026C12.1995 16.1494 12.126 16.1747 12.0503 16.1746ZM12.0503 12.9826C11.7076 13.3289 11.5223 13.7479 11.5223 14.1852C11.5223 14.6225 11.7081 15.0413 12.0503 15.3876C12.3928 15.0413 12.5783 14.6222 12.5783 14.1852C12.5783 13.7482 12.3928 13.3301 12.0503 12.984V12.9826ZM11.6051 19.1107C10.8537 19.1107 10.1495 18.7762 9.6225 18.1687C9.56947 18.1076 9.54028 18.0294 9.54028 17.9485C9.54028 17.8676 9.56947 17.7894 9.6225 17.7283C10.1505 17.1211 10.8537 16.7863 11.6051 16.7863C12.3568 16.7863 13.061 17.1209 13.588 17.7283C13.641 17.7894 13.6702 17.8676 13.6702 17.9485C13.6702 18.0294 13.641 18.1076 13.588 18.1687C13.061 18.7762 12.3573 19.1107 11.6051 19.1107ZM10.3485 17.9486C10.7107 18.2666 11.1477 18.4387 11.6051 18.4387C12.0626 18.4387 12.4996 18.2666 12.8618 17.9486C12.4996 17.6306 12.0626 17.4583 11.6051 17.4583C11.1477 17.4583 10.7107 17.6306 10.3485 17.9486Z" fill="#AA3C31"/>
<path d="M9.85942 18.2683C9.78375 18.2686 9.71023 18.2432 9.65086 18.1963C9.01126 17.688 8.65894 17.0088 8.65894 16.2802C8.65894 15.5515 9.01126 14.8711 9.65086 14.3645C9.71023 14.3174 9.78377 14.2918 9.85954 14.2918C9.9353 14.2918 10.0088 14.3174 10.0682 14.3645C10.7076 14.8711 11.0599 15.5515 11.0599 16.2802C11.0599 17.0088 10.7076 17.689 10.0682 18.1958C10.0088 18.2429 9.9352 18.2684 9.85942 18.2683ZM9.85942 15.0775C9.5167 15.4238 9.33142 15.8429 9.33142 16.2802C9.33142 16.7174 9.51718 17.1362 9.85942 17.4826C10.2021 17.1362 10.3874 16.7174 10.3874 16.2802C10.3874 15.8429 10.2021 15.4238 9.85942 15.0775Z" fill="#AA3C31"/>
<path d="M7.96857 20.0916C7.9013 20.0918 7.83553 20.0718 7.77977 20.0341C7.724 19.9965 7.68081 19.943 7.65579 19.8806C7.63076 19.8182 7.62505 19.7497 7.63939 19.6839C7.65374 19.6182 7.68748 19.5583 7.73625 19.512L14.0089 13.518C14.0733 13.4564 14.1596 13.423 14.2487 13.4251C14.3378 13.4271 14.4224 13.4645 14.484 13.5289C14.5455 13.5934 14.5789 13.6796 14.5769 13.7687C14.5749 13.8578 14.5375 13.9424 14.473 14.004L8.20065 19.9987C8.13811 20.0584 8.05499 20.0916 7.96857 20.0916ZM12.3344 9.83831C9.98268 9.83644 7.63501 9.64317 5.31465 9.26039C4.81257 9.17759 4.44849 8.73239 4.44849 8.20439V5.61791C4.44849 5.56499 4.46099 5.51281 4.48497 5.46563C4.50896 5.41845 4.54375 5.37761 4.58652 5.34642C4.62928 5.31524 4.67881 5.2946 4.73106 5.28618C4.78331 5.27777 4.83681 5.28181 4.88721 5.29799C9.82449 6.88631 14.8352 6.88631 19.7797 5.29799C19.8301 5.28181 19.8836 5.27777 19.9358 5.28618C19.9881 5.2946 20.0376 5.31524 20.0804 5.34642C20.1231 5.37761 20.1579 5.41845 20.1819 5.46563C20.2059 5.51281 20.2184 5.56499 20.2184 5.61791V8.20463C20.2184 8.73263 19.8543 9.17759 19.3525 9.26063C17.0327 9.6434 14.6856 9.83659 12.3344 9.83831ZM5.12025 6.07487V8.20439C5.12025 8.39999 5.25057 8.56871 5.42337 8.59727C9.99899 9.35231 14.6674 9.35231 19.243 8.59727C19.4158 8.56871 19.5462 8.39999 19.5462 8.20463V6.07463C17.1493 6.79991 14.7241 7.16711 12.3308 7.16735C9.93753 7.16759 7.51401 6.79991 5.12025 6.07487Z" fill="#AA3C31"/>
<path d="M6.41817 6.42264C6.35046 6.42274 6.28431 6.40237 6.22838 6.36422C6.17244 6.32606 6.12934 6.2719 6.10472 6.20883C6.0801 6.14576 6.07511 6.07672 6.0904 6.01077C6.10569 5.94481 6.14055 5.88501 6.19041 5.8392L9.96057 2.37024C10.5956 1.78584 11.438 1.464 12.3332 1.464C13.2284 1.464 14.0703 1.78584 14.7056 2.37024L18.475 5.83896C18.5406 5.89943 18.5795 5.98348 18.5832 6.07262C18.5868 6.16176 18.5548 6.24869 18.4944 6.31428C18.4339 6.37988 18.3499 6.41876 18.2607 6.42239C18.1716 6.42601 18.0846 6.39407 18.019 6.3336L14.2503 2.86488C13.1929 1.89192 11.4728 1.89192 10.4156 2.86488L6.64521 6.33384C6.58331 6.39082 6.5023 6.42251 6.41817 6.42264ZM12.4573 22.536C12.416 22.536 12.3747 22.536 12.3332 22.536C12.2917 22.536 12.2504 22.536 12.2091 22.536C9.52473 22.536 6.80433 22.0248 4.12113 21.0161C3.87945 20.9254 3.69969 20.7192 3.62865 20.4504C3.59055 20.3115 3.58618 20.1654 3.6159 20.0245C3.64562 19.8835 3.70858 19.7517 3.79953 19.6399C4.29657 19.0426 5.07489 18.7186 5.53833 18.569C4.82217 16.721 4.50633 14.8634 4.60233 13.0442C4.68777 11.406 5.07777 10.1057 5.36241 9.15624C5.38929 9.06632 5.41513 8.97968 5.43993 8.89632C5.45221 8.85375 5.4728 8.81403 5.5005 8.77944C5.5282 8.74486 5.56246 8.71609 5.60133 8.69481C5.64019 8.67352 5.68287 8.66013 5.72693 8.6554C5.77099 8.65068 5.81555 8.65471 5.85804 8.66728C5.90053 8.67984 5.94011 8.70069 5.97452 8.72862C6.00892 8.75654 6.03746 8.791 6.05849 8.83C6.07952 8.869 6.09263 8.91177 6.09707 8.95586C6.1015 8.99995 6.09717 9.04448 6.08433 9.08688C6.06033 9.17112 6.03321 9.25848 6.00609 9.3492C5.44569 11.2181 4.50777 14.346 6.30009 18.6636C6.31903 18.7092 6.32768 18.7585 6.32541 18.8079C6.32314 18.8572 6.31 18.9055 6.28695 18.9492C6.26389 18.9929 6.23147 19.031 6.19201 19.0607C6.15255 19.0905 6.10702 19.1112 6.05865 19.1213C6.04761 19.1237 4.89441 19.375 4.31601 20.0698C4.26393 20.1322 4.26249 20.2186 4.27833 20.2783C4.29273 20.3333 4.32249 20.3743 4.35753 20.387C7.00521 21.3826 9.68817 21.8803 12.3313 21.864H12.3351C14.9782 21.881 17.6607 21.384 20.3089 20.3875C20.3442 20.3743 20.3739 20.3338 20.3883 20.2788C20.4042 20.219 20.4027 20.1326 20.3506 20.0702C19.7689 19.3714 18.6195 19.1242 18.608 19.1218C18.5596 19.1116 18.5141 19.091 18.4746 19.0612C18.4352 19.0315 18.4028 18.9934 18.3797 18.9497C18.3567 18.906 18.3435 18.8577 18.3412 18.8083C18.339 18.759 18.3476 18.7097 18.3666 18.6641C20.1589 14.3465 19.221 11.2186 18.6606 9.34968C18.6334 9.25896 18.607 9.17161 18.5823 9.08737C18.5695 9.04496 18.5652 9.00043 18.5696 8.95634C18.574 8.91225 18.5871 8.86948 18.6082 8.83048C18.6292 8.79148 18.6577 8.75702 18.6921 8.7291C18.7265 8.70117 18.7661 8.68032 18.8086 8.66776C18.8511 8.65519 18.8957 8.65116 18.9397 8.65588C18.9838 8.66061 19.0265 8.674 19.0653 8.69529C19.1042 8.71657 19.1385 8.74534 19.1662 8.77992C19.1939 8.81451 19.2144 8.85423 19.2267 8.8968C19.2514 8.98 19.2772 9.06664 19.3042 9.15672C19.5889 10.1062 19.9789 11.4065 20.0643 13.0447C20.1603 14.8639 19.8445 16.7206 19.1283 18.5695C19.5918 18.719 20.3701 19.043 20.8671 19.6404C20.9581 19.7521 21.021 19.884 21.0508 20.0249C21.0805 20.1659 21.0761 20.3119 21.038 20.4509C20.966 20.7197 20.7872 20.9258 20.5453 21.0166C17.8623 22.0248 15.1412 22.536 12.4573 22.536Z" fill="#AA3C31"/>
<path d="M4.78424 5.95392C4.69513 5.95392 4.60967 5.91852 4.54665 5.8555C4.48364 5.79249 4.44824 5.70703 4.44824 5.61792C4.44824 4.71672 5.3912 3.91536 7.10336 3.36192C7.88148 3.11158 8.68624 2.95322 9.5012 2.89008C9.58914 2.88471 9.67567 2.9141 9.74215 2.97191C9.80864 3.02972 9.84975 3.11133 9.85664 3.19917C9.86354 3.287 9.83565 3.37403 9.779 3.4415C9.72235 3.50898 9.64146 3.5515 9.55376 3.55992C8.79112 3.61877 8.03799 3.76673 7.30976 4.0008C5.9384 4.44432 5.11976 5.04888 5.11976 5.61792C5.11976 5.70695 5.08443 5.79234 5.02152 5.85533C4.95861 5.91833 4.87327 5.95379 4.78424 5.95392ZM19.8822 5.95392C19.793 5.95392 19.7076 5.91852 19.6446 5.8555C19.5816 5.79249 19.5462 5.70703 19.5462 5.61792C19.5462 5.04888 18.7273 4.44432 17.3557 4.0008C16.6275 3.76673 15.8743 3.61877 15.1117 3.55992C15.0674 3.55677 15.0242 3.54488 14.9846 3.52495C14.9449 3.50502 14.9096 3.47743 14.8807 3.44378C14.8518 3.41013 14.8298 3.37109 14.8161 3.32891C14.8023 3.28672 14.7971 3.24223 14.8006 3.198C14.8041 3.15377 14.8164 3.11068 14.8367 3.07122C14.8569 3.03175 14.8848 2.99669 14.9187 2.96806C14.9526 2.93944 14.9919 2.9178 15.0342 2.90442C15.0765 2.89103 15.121 2.88616 15.1652 2.89008C15.9803 2.95303 16.7852 3.11122 17.5635 3.36144C19.2762 3.91512 20.2191 4.71648 20.2191 5.61744C20.2192 5.66168 20.2105 5.7055 20.1936 5.74639C20.1767 5.78727 20.1518 5.82441 20.1205 5.85567C20.0892 5.88694 20.0521 5.91171 20.0111 5.92857C19.9702 5.94543 19.9264 5.95404 19.8822 5.95392Z" fill="#AA3C31"/>
</svg>
