<svg width="25" height="24" viewBox="0 0 25 24" fill="none" xmlns="http://www.w3.org/2000/svg">
<path d="M22.4369 4.24794C22.8409 4.23683 23.1665 3.90659 23.1665 3.5V1.5C23.1665 1.08643 22.8301 0.75 22.4165 0.75H5.9165C5.50293 0.75 5.1665 1.08643 5.1665 1.5V3.5C5.1665 3.90659 5.49211 4.23683 5.89607 4.24794L5.30299 11.75H2.1665C1.75293 11.75 1.4165 12.0864 1.4165 12.5V13C1.4165 13.4136 1.75293 13.75 2.1665 13.75V16C2.1665 18.1233 3.08582 20.0341 4.5455 21.3607L4.45972 22.4409C4.44373 22.6494 4.51587 22.8569 4.65759 23.01C4.79883 23.1626 4.9989 23.25 5.20654 23.25H23.6665C23.7362 23.25 23.8027 23.2209 23.8501 23.1697C23.8975 23.1184 23.9213 23.0498 23.9158 22.9802L22.4369 4.24794ZM22.0528 5.73691L23.3854 22.6153L22.3433 21.5732C22.2518 21.4819 22.1057 21.4753 22.0065 21.5579L20.9542 22.4348L22.0528 5.73691ZM22.1511 22.0881L22.813 22.75H21.357L22.1511 22.0881ZM5.9165 1.25H22.4165C22.5543 1.25 22.6665 1.36206 22.6665 1.5V2.25H5.6665V1.5C5.6665 1.36206 5.77869 1.25 5.9165 1.25ZM5.6665 3.5V2.75H22.6665V3.5C22.6665 3.63794 22.5543 3.75 22.4165 3.75H5.9165C5.77869 3.75 5.6665 3.63794 5.6665 3.5ZM6.39746 4.25H21.6495L20.4324 22.75H15.5414C18.2439 21.6956 20.1665 19.0711 20.1665 16V13.75C20.5801 13.75 20.9165 13.4136 20.9165 13V12.5C20.9165 12.0864 20.5801 11.75 20.1665 11.75H14.1665V10.7759C14.3088 10.7963 14.4529 10.81 14.599 10.81C15.239 10.81 15.914 10.625 16.5315 10.2675C17.3965 9.7675 18.0265 9.00499 18.264 8.175C18.2815 8.11 18.274 8.03999 18.239 7.9825C18.2065 7.9225 18.149 7.87999 18.084 7.86499C17.2465 7.655 16.2715 7.81999 15.4065 8.31749C14.902 8.61017 14.4789 8.99234 14.1665 9.42415V8.02591C14.3088 8.0463 14.4529 8.06 14.599 8.06C15.239 8.06 15.914 7.875 16.5315 7.5175C17.3965 7.0175 18.0265 6.25499 18.264 5.425C18.2815 5.36 18.274 5.28999 18.239 5.2325C18.2065 5.1725 18.149 5.12999 18.084 5.11499C17.2465 4.905 16.2715 5.06999 15.4065 5.56749C14.902 5.86017 14.4789 6.24234 14.1665 6.67415V6C14.1665 5.86182 14.0546 5.75 13.9165 5.75C13.7784 5.75 13.6665 5.86182 13.6665 6V6.67415C13.3542 6.24234 12.931 5.86017 12.4265 5.56749C11.5615 5.06999 10.5865 4.905 9.74901 5.11499C9.68401 5.12999 9.62651 5.1725 9.59401 5.2325C9.55901 5.28999 9.55151 5.36 9.569 5.425C9.68651 5.84 9.90401 6.2375 10.199 6.595C10.4965 6.9525 10.869 7.2675 11.3015 7.5175C11.919 7.875 12.594 8.06 13.234 8.06C13.3802 8.06 13.5242 8.0463 13.6665 8.02591V9.42415C13.3542 8.99234 12.931 8.61017 12.4265 8.31749C11.5615 7.81999 10.5865 7.655 9.74901 7.86499C9.68401 7.87999 9.62651 7.9225 9.59401 7.9825C9.55901 8.03999 9.55151 8.11 9.569 8.175C9.68651 8.59 9.90401 8.9875 10.199 9.345C10.4965 9.7025 10.869 10.0175 11.3015 10.2675C11.919 10.625 12.594 10.81 13.234 10.81C13.3802 10.81 13.5242 10.7963 13.6665 10.7759V11.75H5.80464L6.39746 4.25ZM14.2465 10.2875C14.4965 9.6825 14.999 9.13249 15.6565 8.7525C16.3165 8.37 17.0415 8.21249 17.6915 8.2975C17.4415 8.905 16.9415 9.4525 16.2815 9.83499C15.624 10.215 14.8965 10.375 14.2465 10.2875ZM14.2465 7.53749C14.4965 6.9325 14.999 6.38249 15.6565 6.0025C16.3165 5.62 17.0415 5.46249 17.6915 5.5475C17.4415 6.155 16.9415 6.7025 16.2815 7.08499C15.624 7.465 14.8965 7.625 14.2465 7.53749ZM13.5865 7.53749C12.9365 7.625 12.209 7.465 11.5515 7.08499C10.8915 6.7025 10.3915 6.155 10.1415 5.5475C10.7915 5.46249 11.5165 5.6225 12.1765 6.0025C12.834 6.38249 13.3365 6.9325 13.5865 7.53749ZM13.5865 10.2875C12.9365 10.375 12.209 10.215 11.5515 9.83499C10.8915 9.4525 10.3915 8.905 10.1415 8.2975C10.7915 8.21249 11.5165 8.37 12.1765 8.7525C12.834 9.13249 13.3365 9.6825 13.5865 10.2875ZM1.9165 13V12.5C1.9165 12.3621 2.02869 12.25 2.1665 12.25H20.1665C20.3043 12.25 20.4165 12.3621 20.4165 12.5V13C20.4165 13.1379 20.3043 13.25 20.1665 13.25H2.1665C2.02869 13.25 1.9165 13.1379 1.9165 13ZM2.6665 16V13.75H19.6665V16C19.6665 19.7219 16.6384 22.75 12.9165 22.75H9.4165C5.69458 22.75 2.6665 19.7219 2.6665 16ZM5.02441 22.6702C4.97632 22.6182 4.95276 22.5503 4.95825 22.4797L5.01591 21.7542C5.5533 22.1658 6.15126 22.5002 6.79164 22.75H5.20654C5.13672 22.75 5.07202 22.7217 5.02441 22.6702Z" fill="#AA3C31"/>
</svg>
