<svg width="20" height="21" viewBox="0 0 20 21" fill="none" xmlns="http://www.w3.org/2000/svg">
<path d="M5.83334 6.64771L8.28503 8.09723C9.71434 8.94229 10.2857 8.94229 11.715 8.09723L14.1667 6.64771" stroke="#475569" stroke-width="1.25" stroke-linecap="round" stroke-linejoin="round"/>
<path d="M8.74999 16.6477C8.36141 16.6426 7.97234 16.6352 7.58235 16.6254C4.9586 16.5594 3.64672 16.5264 2.70412 15.5797C1.76151 14.6329 1.73427 13.3549 1.6798 10.7989C1.66228 9.97693 1.66227 9.15994 1.67979 8.33804C1.73427 5.78196 1.76151 4.50392 2.70411 3.55718C3.64672 2.61043 4.9586 2.57746 7.58234 2.5115C9.19941 2.47085 10.8006 2.47086 12.4177 2.51151C15.0414 2.57747 16.3532 2.61045 17.2958 3.55719C18.2385 4.50393 18.2657 5.78197 18.3202 8.33805C18.3282 8.71644 18.3326 8.89477 18.3332 9.14769" stroke="#475569" stroke-width="1.25" stroke-linecap="round" stroke-linejoin="round"/>
<path d="M15.8333 14.5644C15.8333 15.2547 15.2737 15.8144 14.5833 15.8144C13.893 15.8144 13.3333 15.2547 13.3333 14.5644C13.3333 13.8741 13.893 13.3144 14.5833 13.3144C15.2737 13.3144 15.8333 13.8741 15.8333 14.5644ZM15.8333 14.5644V14.9811C15.8333 15.6714 16.393 16.2311 17.0833 16.2311C17.7737 16.2311 18.3333 15.6714 18.3333 14.9811V14.5644C18.3333 12.4933 16.6544 10.8144 14.5833 10.8144C12.5123 10.8144 10.8333 12.4933 10.8333 14.5644C10.8333 16.6355 12.5123 18.3144 14.5833 18.3144" stroke="#475569" stroke-width="1.25" stroke-linecap="round" stroke-linejoin="round"/>
</svg>
