<svg width="20" height="21" viewBox="0 0 20 21" fill="none" xmlns="http://www.w3.org/2000/svg">
<path d="M4.37783 3.89424L3.35461 4.48782C2.53112 4.96552 2.11937 5.20437 1.89299 5.60173C1.66663 5.99908 1.66663 6.48298 1.66663 7.45077V14.2546C1.66663 15.5262 1.66663 16.162 1.95184 16.5159C2.14163 16.7514 2.40759 16.9096 2.70163 16.9621C3.14351 17.041 3.68453 16.7271 4.76652 16.0995C5.50126 15.6732 6.20838 15.2305 7.08735 15.3506C7.48718 15.4052 7.86855 15.5949 8.63129 15.9741L11.8095 17.5544C12.497 17.8962 12.5033 17.8977 13.2678 17.8977H15C16.5713 17.8977 17.357 17.8977 17.8451 17.3988C18.3333 16.8999 18.3333 16.0968 18.3333 14.4908V8.87396C18.3333 7.2679 18.3333 6.46487 17.8451 5.96594C17.357 5.46701 16.5713 5.46701 15 5.46701H13.2678C12.5033 5.46701 12.497 5.46553 11.8095 5.12371L9.03321 3.74323C7.87399 3.16685 7.29439 2.87866 6.67694 2.89868C6.05948 2.91871 5.49893 3.24389 4.37783 3.89424Z" stroke="#475569" stroke-width="1.25" stroke-linecap="round" stroke-linejoin="round"/>
<path d="M12.5 5.81439V17.4811" stroke="#475569" stroke-width="1.25" stroke-linecap="round" stroke-linejoin="round" stroke-dasharray="0.83 2.5"/>
<path d="M6.66663 3.31439V14.9811" stroke="#475569" stroke-width="1.25" stroke-linecap="round" stroke-linejoin="round" stroke-dasharray="0.83 2.5"/>
</svg>
