<svg width="20" height="21" viewBox="0 0 20 21" fill="none" xmlns="http://www.w3.org/2000/svg">
<path d="M12.6073 11.8534C12.4668 11.9887 12.279 12.0644 12.0835 12.0644C11.888 12.0644 11.7001 11.9887 11.5596 11.8534C10.2727 10.6064 8.54806 9.21337 9.38914 7.19093C9.84389 6.09742 10.9355 5.39771 12.0835 5.39771C13.2315 5.39771 14.3231 6.09742 14.7778 7.19093C15.6178 9.21079 13.8974 10.6106 12.6073 11.8534Z" stroke="#475569" stroke-width="1.25"/>
<path d="M12.0833 8.31439H12.0908" stroke="#475569" stroke-width="1.66667" stroke-linecap="round" stroke-linejoin="round"/>
<path d="M18.3334 10.3977C18.3334 15.0001 14.6024 18.7311 10.0001 18.7311C5.39771 18.7311 1.66675 15.0001 1.66675 10.3977C1.66675 5.79535 5.39771 2.06439 10.0001 2.06439C14.6024 2.06439 18.3334 5.79535 18.3334 10.3977Z" stroke="#475569" stroke-width="1.25"/>
<path d="M7.5 12.8977L4.16667 16.231M12.5 17.8977L2.5 7.89771" stroke="#475569" stroke-width="1.25" stroke-linecap="round"/>
</svg>
