<svg width="20" height="21" viewBox="0 0 20 21" fill="none" xmlns="http://www.w3.org/2000/svg">
<path d="M9.99996 18.731L8.33329 13.731H1.66663L3.33329 18.731H9.99996ZM9.99996 18.731H13.3333" stroke="#475569" stroke-width="1.25" stroke-linecap="round" stroke-linejoin="round"/>
<path d="M10 11.231V10.8144C10 9.24305 10 8.45736 9.51187 7.96921C9.02371 7.48105 8.23806 7.48105 6.66671 7.48105C5.09536 7.48105 4.30968 7.48105 3.82153 7.96921C3.33337 8.45736 3.33337 9.24305 3.33337 10.8144V11.231" stroke="#475569" stroke-width="1.25" stroke-linecap="round" stroke-linejoin="round"/>
<path d="M15.8333 11.231C15.8333 12.1515 15.0872 12.8977 14.1667 12.8977C13.2462 12.8977 12.5 12.1515 12.5 11.231C12.5 10.3105 13.2462 9.56436 14.1667 9.56436C15.0872 9.56436 15.8333 10.3105 15.8333 11.231Z" stroke="#475569" stroke-width="1.25"/>
<path d="M8.33333 3.73103C8.33333 4.6515 7.58714 5.39769 6.66667 5.39769C5.74619 5.39769 5 4.6515 5 3.73103C5 2.81055 5.74619 2.06436 6.66667 2.06436C7.58714 2.06436 8.33333 2.81055 8.33333 3.73103Z" stroke="#475569" stroke-width="1.25"/>
<path d="M11.6666 14.981H16.6666C17.5871 14.981 18.3333 15.7272 18.3333 16.6477V17.0644C18.3333 17.9849 17.5871 18.731 16.6666 18.731H15.8333" stroke="#475569" stroke-width="1.25" stroke-linecap="round"/>
</svg>
