<svg width="20" height="20" viewBox="0 0 20 20" fill="none" xmlns="http://www.w3.org/2000/svg">
<path d="M2.08325 10C2.08325 6.26809 2.08325 4.40212 3.24262 3.24274C4.40199 2.08337 6.26797 2.08337 9.99992 2.08337C13.7318 2.08337 15.5978 2.08337 16.7573 3.24274C17.9166 4.40212 17.9166 6.26809 17.9166 10C17.9166 13.732 17.9166 15.598 16.7573 16.7574C15.5978 17.9167 13.7318 17.9167 9.99992 17.9167C6.26797 17.9167 4.40199 17.9167 3.24262 16.7574C2.08325 15.598 2.08325 13.732 2.08325 10Z" stroke="#0A0E15" stroke-width="1.25"/>
<path d="M9.1805 9.18062C9.6595 8.70162 9.57984 6.66671 9.57984 6.66671M9.1805 9.18062C8.7015 9.65962 6.66659 9.57987 6.66659 9.57987M9.1805 9.18062L5.83325 5.83337M10.8223 10.8224C11.3013 10.3434 13.3363 10.4231 13.3363 10.4231M10.8223 10.8224C10.3433 11.3014 10.4231 13.3363 10.4231 13.3363M10.8223 10.8224L14.1666 14.1666" stroke="#0A0E15" stroke-width="1.25" stroke-linecap="round" stroke-linejoin="round"/>
</svg>
