<svg width="22" height="22" viewBox="0 0 22 22" fill="none" xmlns="http://www.w3.org/2000/svg">
<path d="M9.48277 2.88883L4.59599 4.94641C3.54157 5.39038 3.01437 5.61236 2.71775 6.05908C2.42114 6.5058 2.42114 7.07783 2.42114 8.22191V19.3407H5.08665V10.4557C5.08665 9.61806 5.08665 9.19922 5.34688 8.93897C5.60712 8.67874 6.02596 8.67874 6.86365 8.67874H14.8602C15.6978 8.67874 16.1167 8.67874 16.3769 8.93897C16.6372 9.19922 16.6372 9.61806 16.6372 10.4557V19.3407H19.3027V8.22191C19.3027 7.07783 19.3027 6.5058 19.0061 6.05908C18.7094 5.61236 18.1823 5.39038 17.1278 4.94641L12.241 2.88883C11.5609 2.60243 11.2208 2.45923 10.8619 2.45923C10.503 2.45923 10.1629 2.60243 9.48277 2.88883Z" stroke="#8A2014" stroke-width="1.33275" stroke-linecap="round" stroke-linejoin="round"/>
<path d="M9.97339 6.01331H11.7504" stroke="#8A2014" stroke-width="1.33275" stroke-linecap="round" stroke-linejoin="round"/>
<path d="M11.7505 14.0098H9.97354C9.13586 14.0098 8.71701 14.0098 8.45677 14.27C8.19653 14.5302 8.19653 14.9491 8.19653 15.7868V17.5638C8.19653 18.4014 8.19653 18.8203 8.45677 19.0805C8.71701 19.3408 9.13586 19.3408 9.97354 19.3408H11.7505C12.5882 19.3408 13.0071 19.3408 13.2673 19.0805C13.5275 18.8203 13.5275 18.4014 13.5275 17.5638V15.7868C13.5275 14.9491 13.5275 14.5302 13.2673 14.27C13.0071 14.0098 12.5882 14.0098 11.7505 14.0098Z" stroke="#8A2014" stroke-width="1.33275" stroke-linecap="round" stroke-linejoin="round"/>
</svg>
