<svg width="24" height="24" viewBox="0 0 24 24" fill="none" xmlns="http://www.w3.org/2000/svg">
<path d="M10.2001 17.925C9.1501 17.925 8.1001 17.55 7.2751 16.725C7.1251 16.575 7.1251 16.35 7.2751 16.2C8.0251 15.45 9.0751 15 10.2001 15C11.3251 15 12.3751 15.45 13.1251 16.2C13.2751 16.35 13.2751 16.575 13.1251 16.725C12.3751 17.55 11.2501 17.925 10.2001 17.925ZM8.1751 16.5C9.3751 17.475 11.1001 17.475 12.3751 16.5C11.1001 15.525 9.3001 15.525 8.1751 16.5Z" fill="#AA3C31"/>
<path d="M7.5752 16.875C7.5002 16.875 7.35019 16.8 7.27519 16.8C6.52519 16.05 6.0752 15 6.0752 13.875C6.0752 12.75 6.52519 11.7 7.27519 10.95C7.42519 10.8 7.65019 10.8 7.80019 10.95C9.37519 12.525 9.37519 15.15 7.80019 16.8C7.80019 16.8 7.6502 16.875 7.5752 16.875ZM7.5752 11.7C7.1252 12.3 6.8252 13.05 6.8252 13.8C6.8252 14.55 7.0502 15.3 7.5752 15.9C8.55019 14.7 8.55019 12.975 7.5752 11.7ZM12.3752 15.825C11.2502 15.825 10.2002 15.375 9.4502 14.625C9.30019 14.475 9.30019 14.25 9.4502 14.1C11.0252 12.525 13.6502 12.525 15.3002 14.1C15.3752 14.175 15.3752 14.25 15.3752 14.4C15.3752 14.55 15.3002 14.625 15.3002 14.7C14.4752 15.375 13.4252 15.825 12.3752 15.825ZM10.2752 14.325C11.4752 15.3 13.2752 15.3 14.4752 14.325C13.2002 13.35 11.4752 13.35 10.2752 14.325Z" fill="#AA3C31"/>
<path d="M9.6748 14.7C9.5998 14.7 9.44981 14.7 9.3748 14.625C8.6248 13.875 8.1748 12.825 8.1748 11.7C8.1748 10.575 8.6248 9.52501 9.3748 8.77501C9.44981 8.70001 9.5248 8.70001 9.6748 8.70001C9.7498 8.70001 9.89981 8.77501 9.97481 8.77501C11.5498 10.35 11.5498 12.975 9.97481 14.625C9.89981 14.7 9.8248 14.7 9.6748 14.7ZM9.6748 9.60001C9.2248 10.2 8.9248 10.95 8.9248 11.7C8.9248 12.45 9.1498 13.2 9.6748 13.8C10.6498 12.525 10.6498 10.8 9.6748 9.60001ZM14.4748 13.725C13.4248 13.725 12.3748 13.35 11.5498 12.525C11.4748 12.45 11.4748 12.375 11.4748 12.225C11.4748 12.075 11.5498 12 11.5498 11.925C12.2998 11.175 13.3498 10.725 14.4748 10.725C15.5998 10.725 16.6498 11.175 17.3998 11.925C17.5498 12.075 17.5498 12.3 17.3998 12.45C16.5748 13.275 15.5248 13.725 14.4748 13.725ZM12.3748 12.225C13.5748 13.2 15.2998 13.2 16.5748 12.225C15.3748 11.25 13.5748 11.25 12.3748 12.225Z" fill="#AA3C31"/>
<path d="M11.8499 12.6C11.7749 12.6 11.6249 12.525 11.5499 12.525C9.9749 10.95 9.9749 8.325 11.5499 6.675C11.6999 6.525 11.9249 6.525 12.0749 6.675C13.6499 8.25 13.6499 10.875 12.0749 12.525C11.9999 12.525 11.9249 12.6 11.8499 12.6ZM11.8499 7.5C10.8749 8.7 10.8749 10.425 11.8499 11.7C12.7499 10.425 12.7499 8.7 11.8499 7.5ZM16.5749 11.55C15.5249 11.55 14.4749 11.175 13.6499 10.35C13.4999 10.2 13.4999 9.975 13.6499 9.825C14.3999 9.075 15.4499 8.625 16.5749 8.625C17.6999 8.625 18.7499 9.075 19.4999 9.825C19.6499 9.975 19.6499 10.2 19.4999 10.35C18.6749 11.175 17.6249 11.55 16.5749 11.55ZM14.4749 10.125C15.6749 11.1 17.3999 11.1 18.6749 10.125C17.4749 9.15 15.6749 9.15 14.4749 10.125Z" fill="#AA3C31"/>
<path d="M13.9502 10.5C13.8752 10.5 13.7252 10.425 13.6502 10.425C12.9002 9.67501 12.4502 8.62501 12.4502 7.50001C12.4502 6.37501 12.9002 5.32501 13.6502 4.57501C13.8002 4.42501 14.0252 4.42501 14.1752 4.57501C15.7502 6.15001 15.7502 8.77501 14.1752 10.425C14.1752 10.425 14.0252 10.5 13.9502 10.5ZM13.9502 5.32501C13.5002 5.92501 13.2002 6.67501 13.2002 7.42501C13.2002 8.17501 13.4252 8.92501 13.9502 9.52501C14.9252 8.32501 14.9252 6.60001 13.9502 5.32501Z" fill="#AA3C31"/>
<path d="M14.9248 9.45C14.6998 9.45 14.5498 9.3 14.5498 9.075C14.5498 6.75 16.4248 4.875 18.7498 4.875C18.9748 4.875 19.1248 5.025 19.1248 5.25C19.1248 7.575 17.2498 9.45 14.9248 9.45ZM18.3748 5.625C16.7998 5.775 15.5248 7.05 15.2998 8.7C16.8748 8.475 18.1498 7.2 18.3748 5.625Z" fill="#AA3C31"/>
<path d="M17.8501 8.09999C17.7751 8.09999 17.6251 8.09999 17.5501 8.02499C17.4001 7.87499 17.4001 7.64999 17.5501 7.49999L21.0001 3.97499C21.1501 3.82499 21.3751 3.82499 21.5251 3.97499C21.6751 4.12499 21.6751 4.34999 21.5251 4.49999L18.0751 7.94999C18.0001 8.09999 17.9251 8.09999 17.8501 8.09999ZM16.2001 6.52499C16.1251 6.52499 15.9751 6.52499 15.9001 6.44999C15.7501 6.29999 15.7501 6.07499 15.9001 5.92499L19.3501 2.47499C19.5001 2.32499 19.7251 2.32499 19.8751 2.47499C20.0251 2.62499 20.0251 2.84999 19.8751 2.99999L16.5001 6.44999C16.4251 6.52499 16.3501 6.52499 16.2001 6.52499ZM18.6751 9.97499C18.6001 9.97499 18.4501 9.97499 18.3751 9.89999C18.2251 9.74999 18.2251 9.52499 18.3751 9.37499L21.0001 6.74999C21.1501 6.59999 21.3751 6.59999 21.5251 6.74999C21.6751 6.89999 21.6751 7.12499 21.5251 7.27499L18.9001 9.89999C18.8251 9.89999 18.7501 9.97499 18.6751 9.97499ZM14.4001 5.69999C14.3251 5.69999 14.1751 5.69999 14.1001 5.62499C13.9501 5.47499 13.9501 5.24999 14.1001 5.09999L16.7251 2.47499C16.8751 2.32499 17.1001 2.32499 17.2501 2.47499C17.4001 2.62499 17.4001 2.84999 17.2501 2.99999L14.6251 5.62499C14.6251 5.69999 14.4751 5.69999 14.4001 5.69999ZM3.4501 21.675C3.1501 21.675 2.8501 21.6 2.6251 21.375C2.1751 20.925 2.1751 20.25 2.6251 19.8L6.8251 15.6C6.9751 15.45 7.2001 15.45 7.3501 15.6C7.5001 15.75 7.5001 15.975 7.3501 16.125L3.1501 20.325C3.0001 20.475 3.0001 20.7 3.1501 20.85C3.3001 21 3.5251 21 3.6751 20.85L7.8751 16.65C8.0251 16.5 8.2501 16.5 8.4001 16.65C8.5501 16.8 8.5501 17.025 8.4001 17.175L4.2001 21.375C4.0501 21.6 3.7501 21.675 3.4501 21.675Z" fill="#AA3C31"/>
</svg>
